<?xml version="1.0" standalone="no"?>
<!DOCTYPE svg PUBLIC "-//W3C//DTD SVG 20010904//EN"
 "http://www.w3.org/TR/2001/REC-SVG-20010904/DTD/svg10.dtd">
<svg version="1.0" xmlns="http://www.w3.org/2000/svg"
 width="500.000000pt" height="500.000000pt" viewBox="0 0 500.000000 500.000000"
 preserveAspectRatio="xMidYMid meet">
<metadata>
Created by potrace 1.16, written by Peter Selinger 2001-2019
</metadata>
<g transform="translate(0.000000,500.000000) scale(0.100000,-0.100000)"
fill="#6720ff" stroke="none">
<path d="M1284 3519 c-173 -29 -356 -117 -508 -243 -131 -110 -270 -336 -316
-516 -28 -107 -37 -297 -21 -410 54 -369 334 -706 681 -820 161 -52 162 -52
717 -57 l521 -5 12 23 c18 32 470 1141 470 1151 0 4 -182 8 -404 8 l-404 0
-71 -135 c-39 -74 -71 -137 -71 -140 0 -3 126 -5 279 -5 154 0 282 -4 285 -9
3 -5 -42 -121 -99 -257 -58 -137 -114 -269 -125 -294 l-19 -45 -438 0 c-432 0
-439 0 -513 23 -135 43 -226 97 -320 192 -148 148 -209 287 -218 492 -6 146
13 235 73 356 117 234 329 382 591 412 50 5 336 10 650 10 l560 0 67 140 66
140 -697 -1 c-383 -1 -720 -5 -748 -10z"/>
<path d="M3342 3487 c-10 -12 -112 -252 -112 -264 0 -2 157 -3 348 -3 377 0
420 -5 507 -56 66 -38 150 -134 176 -201 33 -82 33 -233 1 -315 -38 -94 -142
-195 -244 -236 -38 -15 -105 -17 -587 -22 l-545 -5 -52 -125 c-29 -69 -53
-131 -53 -137 -1 -10 67 -13 308 -13 l308 0 52 -127 c28 -71 86 -213 129 -318
l78 -190 147 -3 c81 -1 147 1 147 6 0 4 -53 138 -119 297 -65 160 -121 299
-125 311 -6 20 -3 21 136 27 164 8 256 29 359 83 130 69 227 171 294 309 54
113 68 174 69 300 0 124 -14 185 -69 300 -89 186 -243 313 -444 367 -67 19
-112 21 -386 25 -267 4 -313 3 -323 -10z"/>
</g>
</svg>
